<svg width="151" height="38" viewBox="0 0 151 38" fill="none" xmlns="http://www.w3.org/2000/svg">
<g clip-path="url(#clip0_4490_7467)">
<path d="M85.2509 11.6037C86.2126 12.5653 87.5621 13.0736 89.1512 13.0736C92.4567 13.0736 94.5926 10.8535 94.5926 7.41716C94.5926 3.98078 92.4567 1.76074 89.1512 1.76074C87.5609 1.76074 86.2126 2.26901 85.2509 3.23064C84.2437 4.23783 83.7109 5.68553 83.7109 7.41599C83.7109 9.14762 84.2437 10.5941 85.2509 11.6025V11.6037ZM89.1512 3.24232C92.7254 3.24232 93.1122 6.16225 93.1122 7.41833C93.1122 8.6744 92.7254 11.5943 89.1512 11.5943C85.5769 11.5943 85.1913 8.6744 85.1913 7.41833C85.1913 6.16225 85.5769 3.24349 89.1512 3.24232Z" fill="white"/>
<path d="M51.1888 11.7428V12.6624C51.1888 12.8084 51.308 12.9276 51.454 12.9276H52.404C52.55 12.9276 52.6692 12.8096 52.6692 12.6624V12.0723C52.6692 9.79386 51.2495 7.75727 49.1125 6.96858L48.7993 6.8529L52.5745 3.07767C52.6785 2.97368 52.6785 2.80659 52.5745 2.7026L51.9027 2.03075C51.7987 1.92676 51.6316 1.92676 51.5276 2.03075L47.0864 6.47199C46.9836 6.57481 46.8457 6.63206 46.7008 6.63206H45.5324V0.265236C45.5324 0.119181 45.4132 0 45.2671 0H44.316C44.17 0 44.0508 0.119181 44.0508 0.265236V12.6624C44.0508 12.8084 44.1688 12.9276 44.316 12.9276H45.2671C45.4132 12.9276 45.5324 12.8096 45.5324 12.6624V8.11248H47.5619C49.567 8.11248 51.1923 9.73778 51.1923 11.7428H51.1888Z" fill="white"/>
<path d="M56.9144 1.9082H55.9645C55.818 1.9082 55.6992 2.02695 55.6992 2.17344V12.6625C55.6992 12.809 55.818 12.9278 55.9645 12.9278H56.9144C57.0609 12.9278 57.1796 12.809 57.1796 12.6625V2.17344C57.1796 2.02695 57.0609 1.9082 56.9144 1.9082Z" fill="white"/>
<path d="M60.7183 12.9275H68.8623C69.0084 12.9275 69.1276 12.8083 69.1276 12.6622V11.7123C69.1276 11.5662 69.0096 11.4471 68.8623 11.4471H62.2186L69.0096 3.65706C69.0855 3.56943 69.1276 3.45726 69.1276 3.34158V2.45123C69.1276 2.15094 68.8845 1.90674 68.5831 1.90674H60.4391C60.293 1.90674 60.1738 2.02592 60.1738 2.17197V3.12192C60.1738 3.26797 60.2918 3.38715 60.4391 3.38715H67.0828L60.2918 11.1771C60.2159 11.2648 60.1738 11.3769 60.1738 11.4926V12.383C60.1738 12.6833 60.4169 12.9275 60.7183 12.9275Z" fill="white"/>
<path d="M81.0122 8.15776C81.309 8.15776 81.1022 4.38253 80.1441 3.35313C79.1754 2.31205 77.7862 1.76172 76.1258 1.76172C72.8203 1.76172 70.6844 3.98175 70.6855 7.41814C70.6855 7.6343 70.6949 7.85046 70.7113 8.06195C70.7136 8.09466 70.7183 8.12504 70.7229 8.15659C70.7264 8.18346 70.73 8.21151 70.7335 8.23955C70.751 8.39962 70.765 8.53867 70.7872 8.67304C70.7942 8.71394 70.8024 8.75249 70.8117 8.79105C70.8188 8.82143 70.8258 8.85298 70.8316 8.88453L70.8456 8.95463C70.8655 9.05395 70.8854 9.15327 70.9111 9.24908C70.9227 9.29231 70.9368 9.33438 70.9496 9.37644L70.9987 9.53535C71.0244 9.62181 71.0513 9.70828 71.0817 9.79124C71.098 9.83564 71.1167 9.87653 71.1342 9.9186L71.195 10.0611C71.2277 10.1406 71.2604 10.2201 71.2978 10.296C71.3188 10.3392 71.3422 10.3801 71.3656 10.421L71.4357 10.5484C71.4754 10.6208 71.514 10.6933 71.5572 10.7634C71.5817 10.8031 71.6098 10.8405 71.6367 10.8791L71.7149 10.9901C71.7617 11.0578 71.8084 11.1268 71.8587 11.191C71.8879 11.2284 71.9206 11.2646 71.9521 11.3009L72.0304 11.3908C72.076 11.4446 72.1216 11.4972 72.1695 11.5486L72.2267 11.6047C73.1907 12.5698 74.5391 13.0804 76.127 13.0804C77.4356 13.0804 78.5877 12.7299 79.4921 12.0627C79.6241 11.9657 79.6416 11.7741 79.5248 11.6584L78.8506 10.9842C78.763 10.8966 78.6228 10.8779 78.5199 10.9492C77.8902 11.3815 77.0874 11.6011 76.127 11.6011C72.5527 11.6011 72.166 8.68122 72.166 7.42515C72.166 6.16907 72.5515 3.24914 76.127 3.24914C79.0317 3.24914 79.8041 5.24484 80.0062 6.43431L80.0483 6.68436H75.7846C75.6386 6.68436 75.5194 6.80354 75.5194 6.94959V7.9007C75.5194 8.04676 75.6386 8.16594 75.7846 8.16594H81.0122V8.15776Z" fill="white"/>
<path d="M48.7203 26.1846H56.2859C56.5593 26.1846 56.7813 26.4066 56.7813 26.68V30.01C56.7813 30.2835 56.5593 30.5055 56.2859 30.5055H48.7203V36.8045C48.7203 37.0779 48.4982 37.2999 48.2248 37.2999H44.5442C44.2708 37.2999 44.0488 37.0779 44.0488 36.8045V18.4378C44.0488 17.7812 44.5805 17.2495 45.2371 17.2495H58.8132C59.0866 17.2495 59.3087 17.4715 59.3087 17.7449V21.075C59.3087 21.3484 59.0866 21.5704 58.8132 21.5704H48.7191V26.1846H48.7203Z" fill="white"/>
<path d="M71.4517 18.0723C74.513 18.0723 76.9913 18.9813 78.8865 20.7971C80.7805 22.614 81.7281 25.0011 81.7281 27.9584C81.7281 30.9158 80.7805 33.3952 78.8865 35.2366C76.9925 37.0793 74.5142 38 71.4517 38C68.3892 38 65.8724 37.0793 63.9784 35.2366C62.0843 33.394 61.1367 30.9683 61.1367 27.9584C61.1367 24.9485 62.0843 22.6128 63.9784 20.7971C65.8724 18.9813 68.3635 18.0723 71.4517 18.0723ZM71.4517 33.914C73.1646 33.914 74.5457 33.3683 75.5973 32.2793C76.6478 31.1892 77.1736 29.7497 77.1736 27.9584C77.1736 26.1672 76.6478 24.8188 75.5973 23.7544C74.5469 22.6911 73.1646 22.1583 71.4517 22.1583C69.7388 22.1583 68.3121 22.6899 67.2477 23.7544C66.1832 24.8188 65.6516 26.2198 65.6516 27.9584C65.6516 29.6971 66.1832 31.1892 67.2477 32.2793C68.3109 33.3695 69.7131 33.914 71.4517 33.914Z" fill="white"/>
<path d="M96.8515 18.8059V22.2119C96.8515 22.4841 96.6306 22.7038 96.3584 22.705C94.0811 22.7166 91.9615 22.8078 90.0009 22.976V36.8045C90.0009 37.0779 89.7789 37.2999 89.5055 37.2999H86.0189C85.7454 37.2999 85.5234 37.0779 85.5234 36.8045V20.4323C85.5234 19.8528 85.9417 19.3574 86.5119 19.2604C90.057 18.6575 93.3356 18.3397 96.349 18.3081C96.6248 18.3058 96.8491 18.5301 96.8491 18.8059H96.8515Z" fill="white"/>
<path d="M122.522 18.3047C127.711 18.3047 130.306 20.693 130.306 25.4661V36.8034C130.306 37.0768 130.084 37.2988 129.811 37.2988H126.326C126.052 37.2988 125.83 37.0768 125.83 36.8034V26.7502C125.83 23.8443 124.402 22.3907 121.549 22.3907C119.914 22.3907 118.422 22.5859 117.073 22.9749C117.28 23.7274 117.383 24.5453 117.383 25.4275V36.8046C117.383 37.078 117.161 37.3 116.888 37.3H113.363C113.089 37.3 112.867 37.078 112.867 36.8046V26.6742C112.867 25.195 112.517 24.1118 111.817 23.4236C111.116 22.7366 110.04 22.3919 108.586 22.3919C107.133 22.3919 105.77 22.483 104.421 22.6641V36.8046C104.421 37.078 104.199 37.3 103.925 37.3H100.439C100.165 37.3 99.9434 37.078 99.9434 36.8046V20.249C99.9434 19.6718 100.358 19.1775 100.927 19.0782C101.751 18.9333 102.831 18.7861 104.167 18.6354C106.127 18.4157 107.924 18.3047 109.558 18.3047C111.739 18.3047 113.451 18.7078 114.696 19.5117C116.875 18.7078 119.483 18.3047 122.52 18.3047H122.522Z" fill="white"/>
<path d="M149.914 19.5068L147.583 18.93C147.164 18.8263 146.74 19.0819 146.636 19.501L146.06 21.8318C145.956 22.2509 146.212 22.6747 146.631 22.7784L148.961 23.3552C149.381 23.4589 149.804 23.2033 149.908 22.7842L150.485 20.4534C150.589 20.0343 150.333 19.6105 149.914 19.5068Z" fill="#55C96B"/>
<path d="M148.837 28.2306C147.811 27.4781 146.118 26.8554 143.758 26.3623C143.55 26.3097 143.252 26.2454 142.863 26.1671C140.216 25.6752 138.892 24.9485 138.892 23.988C138.892 22.6396 139.955 21.9643 142.083 21.9643C142.365 21.9643 142.659 21.976 142.965 21.9982C143.447 22.0332 143.887 21.7247 144.004 21.255L144.501 19.2663C144.602 18.8586 144.307 18.466 143.888 18.4368C143.374 18.4017 142.851 18.3818 142.318 18.3818C139.905 18.3818 137.997 18.9076 136.596 19.9581C135.195 21.0085 134.494 22.4562 134.494 24.2976C134.494 25.8295 135 27.0096 136.012 27.8392C137.024 28.6699 138.606 29.2927 140.761 29.7075C140.969 29.7601 141.266 29.8174 141.656 29.8828C142.045 29.9482 142.35 30.0066 142.57 30.0581C142.79 30.1106 143.064 30.1691 143.387 30.2333C143.711 30.2988 143.971 30.3642 144.165 30.4284C144.36 30.4939 144.587 30.571 144.847 30.6621C145.106 30.7533 145.307 30.8503 145.449 30.9542C145.592 31.0582 145.728 31.1751 145.858 31.3048C145.988 31.4345 146.085 31.584 146.151 31.7523C146.215 31.9205 146.248 32.0958 146.248 32.2781C146.248 33.5494 144.989 34.185 142.472 34.185C140.335 34.185 137.994 33.7071 135.448 32.7525C135.168 32.6473 134.859 32.8051 134.789 33.0948L134.127 35.8255C134.069 36.0673 134.197 36.3186 134.43 36.4074C136.974 37.39 139.577 37.8808 142.239 37.8808C144.73 37.8808 146.708 37.3748 148.174 36.363C149.64 35.3511 150.373 33.8333 150.373 31.8084C150.373 30.1737 149.86 28.9808 148.836 28.2271L148.837 28.2306Z" fill="white"/>
<path d="M17.2501 0.0345964L14.8531 0.813419C14.4812 0.934263 14.2777 1.33373 14.3985 1.70565L15.1788 4.10706C15.2996 4.47898 15.6991 4.68252 16.071 4.56167L18.468 3.78285C18.8399 3.66201 19.0434 3.26254 18.9226 2.89062L18.1423 0.489208C18.0215 0.117289 17.622 -0.0862473 17.2501 0.0345964Z" fill="#55C96B"/>
<path d="M12.0278 16.608H8.57855C8.18829 16.608 7.87048 16.2914 7.87048 15.8999V13.3784C7.87048 12.9882 8.18712 12.6704 8.57855 12.6704H9.67922L6.90768 4.13959C6.78733 3.76802 6.99064 3.36842 7.36221 3.24807L9.75984 2.46872C10.1314 2.34837 10.531 2.55168 10.6514 2.92324L14.1497 13.6892C14.2198 13.9042 14.1824 14.1403 14.0492 14.3237L12.6015 16.3171C12.4683 16.5005 12.2556 16.6092 12.029 16.6092L12.0278 16.608Z" fill="#55C96B"/>
<path d="M3.23307 12.6714H0.708075C0.317016 12.6714 0 12.9884 0 13.3795V15.8998C0 16.2908 0.317016 16.6079 0.708075 16.6079H3.23307C3.62413 16.6079 3.94115 16.2908 3.94115 15.8998V13.3795C3.94115 12.9884 3.62413 12.6714 3.23307 12.6714Z" fill="#55C96B"/>
<path d="M12.1903 27.2023L9.79269 26.423C9.42113 26.3026 9.21782 25.903 9.33817 25.5314L9.67819 24.4845H0.708074C0.317816 24.4845 0 24.1679 0 23.7764V21.2549C0 20.8647 0.316647 20.5469 0.708074 20.5469H12.0267C12.2534 20.5469 12.4661 20.6555 12.5993 20.839L14.047 22.8323C14.1802 23.0158 14.2176 23.2518 14.1475 23.4668L13.0819 26.7466C12.9615 27.1182 12.5619 27.3215 12.1903 27.2011V27.2023Z" fill="#55C96B"/>
<path d="M7.68853 30.6151L6.90826 33.0165C6.78742 33.3884 6.99095 33.7879 7.36287 33.9087L9.75984 34.6876C10.1318 34.8084 10.5312 34.6049 10.6521 34.233L11.4323 31.8315C11.5532 31.4596 11.3496 31.0602 10.9777 30.9393L8.58075 30.1605C8.20883 30.0397 7.80937 30.2432 7.68853 30.6151Z" fill="#55C96B"/>
<path d="M17.2501 37.1225L14.8524 36.3431C14.4809 36.2228 14.2776 35.8232 14.3979 35.4516L17.8962 24.6856C17.9663 24.4706 18.1346 24.3012 18.3507 24.2311L20.6935 23.4693C20.9085 23.3992 21.1445 23.4366 21.3279 23.5698L24.1182 25.597C24.4348 25.8272 24.5049 26.2689 24.2747 26.5855L22.7932 28.6256C22.563 28.9423 22.1213 29.0124 21.8047 28.7822L20.9143 28.1349L18.1416 36.6668C18.0212 37.0384 17.6216 37.2417 17.2501 37.1213V37.1225Z" fill="#55C96B"/>
<path d="M27.4542 28.896L25.9728 30.935C25.743 31.2513 25.8131 31.6941 26.1295 31.924L28.1723 33.4082C28.4886 33.638 28.9314 33.5679 29.1613 33.2515L30.6427 31.2125C30.8726 30.8962 30.8024 30.4534 30.4861 30.2235L28.4433 28.7393C28.1269 28.5095 27.6841 28.5796 27.4542 28.896Z" fill="#55C96B"/>
<path d="M20.6944 13.6871L18.3517 12.9252C18.1367 12.8551 17.9672 12.6869 17.8971 12.4707L16.8315 9.19091C16.7112 8.81935 16.9145 8.41974 17.286 8.29939L19.6837 7.52004C20.0552 7.39969 20.4548 7.603 20.5752 7.97457L20.9152 9.02149L28.1724 3.74832C28.489 3.51814 28.9307 3.58824 29.1609 3.90489L30.6425 5.94499C30.8727 6.26163 30.8025 6.7033 30.4859 6.93349L21.3277 13.5866C21.1442 13.7198 20.9082 13.7572 20.6932 13.6871H20.6944Z" fill="#55C96B"/>
<path d="M32.8019 27.0363L23.6437 20.3832C23.4602 20.25 23.3516 20.0374 23.3516 19.8107V17.3476C23.3516 17.1209 23.4602 16.9083 23.6437 16.7751L26.4339 14.7478C26.7506 14.5176 27.1922 14.5878 27.4224 14.9044L28.904 16.9445C29.1342 17.2611 29.0641 17.7028 28.7474 17.933L27.8571 18.5803L35.1154 23.8535C35.4321 24.0837 35.5022 24.5253 35.272 24.842L33.7904 26.8821C33.5602 27.1987 33.1186 27.2688 32.8019 27.0386V27.0363Z" fill="#55C96B"/>
<path d="M32.8012 10.1192L30.7584 11.6033C30.442 11.8332 30.3719 12.276 30.6017 12.5924L32.0832 14.6314C32.313 14.9477 32.7558 15.0179 33.0722 14.788L35.115 13.3039C35.4313 13.074 35.5015 12.6312 35.2716 12.3148L33.7902 10.2758C33.5603 9.95945 33.1175 9.88932 32.8012 10.1192Z" fill="#55C96B"/>
</g>
<defs>
<clipPath id="clip0_4490_7467">
<rect width="150.51" height="38" fill="white"/>
</clipPath>
</defs>
</svg>
